HIERARCHY
ROOT Hips
{
	OFFSET	0.00	0.00	0.00
	CHANNELS 6 Xposition Yposition Zposition Zrotation Xrotation Yrotation
	JOINT LeftUpLeg
	{
		OFFSET	 0.126116	-0.065224	 0.014019
		CHANNELS 3 Zrotation Xrotation Yrotation
		JOINT LeftLeg
		{
			OFFSET	 0.000000	 0.569914	 0.000000
			CHANNELS 3 Zrotation Xrotation Yrotation
			JOINT LeftFoot
			{
				OFFSET	 0.000000	 0.544423	 0.000000
				CHANNELS 3 Zrotation Xrotation Yrotation
				JOINT LeftToeBase
				{
					OFFSET	 0.000000	 0.207117	 0.000000
					CHANNELS 3 Zrotation Xrotation Yrotation
					End Site
					{
						OFFSET	 0.000000	 0.207117	 0.000000
					}
				}
			}
		}
	}
	JOINT RightUpLeg
	{
		OFFSET	-0.124023	-0.065224	 0.008373
		CHANNELS 3 Zrotation Xrotation Yrotation
		JOINT RightLeg
		{
			OFFSET	 0.000000	 0.570047	 0.000000
			CHANNELS 3 Zrotation Xrotation Yrotation
			JOINT RightFoot
			{
				OFFSET	 0.000000	 0.544354	 0.000000
				CHANNELS 3 Zrotation Xrotation Yrotation
				JOINT RightToeBase
				{
					OFFSET	 0.000000	 0.207540	 0.000000
					CHANNELS 3 Zrotation Xrotation Yrotation
					End Site
					{
						OFFSET	 0.000000	 0.207540	 0.000000
					}
				}
			}
		}
	}
	JOINT Spine
	{
		OFFSET	 0.000184	 0.117403	 0.007763
		CHANNELS 3 Zrotation Xrotation Yrotation
		JOINT Spine1
		{
			OFFSET	 0.000000	 0.137269	 0.000000
			CHANNELS 3 Zrotation Xrotation Yrotation
			JOINT Spine2
			{
				OFFSET	 0.000000	 0.156879	 0.000000
				CHANNELS 3 Zrotation Xrotation Yrotation
				JOINT LeftShoulder
				{
					OFFSET	 0.080501	 0.160143	 0.002496
					CHANNELS 3 Zrotation Xrotation Yrotation
					JOINT LeftArm
					{
						OFFSET	 0.000000	 0.164363	 0.000000
						CHANNELS 3 Zrotation Xrotation Yrotation
						JOINT LeftForeArm
						{
							OFFSET	 0.000000	 0.364576	 0.000000
							CHANNELS 3 Zrotation Xrotation Yrotation
							JOINT LeftHand
							{
								OFFSET	 0.000000	 0.360812	 0.000000
								CHANNELS 3 Zrotation Xrotation Yrotation
								JOINT LeftHandIndex1
								{
									OFFSET	 0.000000	 0.086006	 0.000000
									CHANNELS 3 Zrotation Xrotation Yrotation
									JOINT LeftHandIndex2
									{
										OFFSET	 0.000000	 0.047237	 0.000000
										CHANNELS 3 Zrotation Xrotation Yrotation
										JOINT LeftHandIndex3
										{
											OFFSET	-0.004284	 0.038165	 0.000551
											CHANNELS 3 Zrotation Xrotation Yrotation
											End Site
											{
												OFFSET	-0.004284	 0.038165	 0.000551
											}
										}
									}
								}
							}
						}
					}
				}
				JOINT Neck
				{
					OFFSET	 0.000000	 0.176489	 0.000000
					CHANNELS 3 Zrotation Xrotation Yrotation
					JOINT Head
					{
						OFFSET	 0.000000	 0.077941	 0.001747
						CHANNELS 3 Zrotation Xrotation Yrotation
						End Site
						{
							OFFSET	 0.000000	 0.077941	 0.001747
						}
					}
				}
				JOINT RightShoulder
				{
					OFFSET	-0.080363	 0.159706	-0.000306
					CHANNELS 3 Zrotation Xrotation Yrotation
					JOINT RightArm
					{
						OFFSET	 0.000000	 0.164196	 0.000000
						CHANNELS 3 Zrotation Xrotation Yrotation
						JOINT RightForeArm
						{
							OFFSET	 0.000000	 0.365611	 0.000000
							CHANNELS 3 Zrotation Xrotation Yrotation
							JOINT RightHand
							{
								OFFSET	 0.000000	 0.360648	 0.000000
								CHANNELS 3 Zrotation Xrotation Yrotation
								JOINT RightHandIndex1
								{
									OFFSET	 0.000000	 0.069977	 0.000000
									CHANNELS 3 Zrotation Xrotation Yrotation
									JOINT RightHandIndex2
									{
										OFFSET	 0.000000	 0.052305	 0.000000
										CHANNELS 3 Zrotation Xrotation Yrotation
										JOINT RightHandIndex3
										{
											OFFSET	 0.009002	 0.042196	 0.000782
											CHANNELS 3 Zrotation Xrotation Yrotation
											End Site
											{
												OFFSET	 0.009002	 0.042196	 0.000782
											}
										}
									}
								}
							}
						}
					}
				}
			}
		}
	}
}
MOTION
Frames:    6
Frame Time: 0.03333334
 0.436595	 1.273907	 0.406576	 0.542803	-2.364400	-177.254200	-179.237000	 6.818545	-11.920900	 3.476296	-12.857320	 5.979025	 5.371823	 69.808070	-1.594139	 1.292262	 28.425850	-2.713146	 176.685500	 7.632257	 13.544360	-2.058075	-10.583220	 0.845876	 0.641116	 66.215840	-5.828483	-1.288183	 28.361890	 2.710176	 0.209863	 6.613523	 0.558517	-0.186375	-6.948737	 0.137113	 0.727153	 8.030093	-1.093325	-117.460800	-0.780375	 89.958230	 11.733180	-1.133018	-7.120712	 4.961650	-0.403268	 34.718800	 5.968167	-4.634497	-1.618604	-6.580301	 5.266122	 0.000000	 0.000000	 0.000000	 0.000000	 0.000000	 0.000000	 0.000000	 4.796129	 27.119600	 1.712145	-4.049306	-16.198050	-0.193042	 116.290200	-0.440903	-90.568870	-11.521610	-2.398304	 20.573150	-5.067298	 0.120732	-57.195870	-6.546805	-5.924572	 13.953790	 15.208500	 5.323790	 0.000000	 0.000000	 0.000000	 0.000000	 0.000000	 0.000000	 0.000000
 0.437108	 1.276821	 0.410593	 0.522520	-3.318891	-177.180900	-179.265000	 6.775539	-11.799560	 2.765880	-10.295120	 6.023952	 5.962714	 68.135910	-1.729897	 1.292262	 28.425850	-2.713146	 176.683900	 7.341795	 13.567170	-1.452682	-7.513760	 0.668610	-0.576006	 64.376390	-5.117113	-1.288183	 28.361890	 2.710176	 0.089458	 6.998698	 0.376003	-0.155987	-9.783965	-0.035549	 0.758369	 11.110620	-0.793052	-118.277700	-1.028734	 89.845520	 12.443030	-3.808709	-5.303969	 4.870211	-0.395864	 32.577640	 8.671338	-0.444950	 0.762220	-6.580301	 5.266122	 0.000000	 0.000000	 0.000000	 0.000000	 0.000000	 0.000000	 0.000000	 5.376482	 28.905850	 1.227631	-4.119422	-16.945630	-0.015258	 117.578600	-0.795222	-90.442710	-12.037660	-5.685856	 20.070160	-4.969840	 0.118383	-55.695660	-11.005970	-1.970813	 9.699372	 15.208500	 5.323790	 0.000000	 0.000000	 0.000000	 0.000000	 0.000000	 0.000000	 0.000000
 0.437730	 1.281537	 0.417051	 0.435739	-4.446389	-177.092600	-179.324600	 5.662420	-11.627450	 1.318412	-4.950002	 6.077754	 6.601066	 64.839550	-1.541512	 1.292262	 28.425850	-2.713146	 176.583900	 7.678656	 13.602700	-0.967761	-5.021856	 0.370988	-1.813416	 62.655760	-4.398413	-1.288183	 28.361890	 2.710176	-0.131330	 7.480614	 0.043817	-0.000468	-12.811300	-0.312169	 0.698347	 14.358710	-0.217082	-119.368000	-1.357384	 89.689680	 13.029250	-8.926104	-3.304938	 4.731957	-0.384629	 30.002300	 13.098070	 6.529952	 2.232059	-6.580301	 5.266122	 0.000000	 0.000000	 0.000000	 0.000000	 0.000000	 0.000000	 0.000000	 6.195270	 31.283220	 0.534079	-4.203557	-18.036860	 0.273803	 119.299000	-1.263339	-90.262000	-12.243650	-11.779660	 19.519740	-4.817622	 0.114788	-54.138820	-18.386270	 4.194126	 5.954994	 15.208500	 5.323790	 0.000000	 0.000000	 0.000000	 0.000000	 0.000000	 0.000000	 0.000000
 0.437775	 1.281821	 0.417448	 0.430440	-4.510791	-177.088700	-179.336500	 5.754372	-11.616700	 1.318130	-4.948948	 6.090744	 6.647535	 64.807510	-1.570497	 1.292262	 28.425850	-2.713146	 176.574200	 7.770245	 13.605360	-0.967654	-5.021285	 0.352581	-1.864415	 62.627770	-4.361834	-1.288183	 28.361890	 2.710176	-0.151298	 7.506547	-0.020249	 0.022377	-12.980460	-0.371581	 0.676656	 14.565040	-0.090207	-119.426400	-1.374887	 89.681160	 13.061190	-9.167072	-3.229370	 4.722299	-0.383827	 29.872370	 13.129590	 6.951293	 2.247486	-6.580301	 5.266122	 0.000000	 0.000000	 0.000000	 0.000000	 0.000000	 0.000000	 0.000000	 6.240627	 31.410230	 0.495342	-4.206532	-18.086610	 0.314023	 119.391100	-1.288233	-90.251950	-12.249790	-12.081650	 19.453970	-4.807709	 0.114602	-54.067670	-18.942110	 4.431891	 5.723277	 15.208500	 5.323790	 0.000000	 0.000000	 0.000000	 0.000000	 0.000000	 0.000000	 0.000000
 0.437438	 1.278331	 0.412724	 0.526204	-3.795544	-177.160000	-179.249600	 6.594094	-11.752300	 2.326283	-8.687060	 6.021494	 6.152012	 67.128360	-1.686111	 1.292262	 28.425850	-2.713146	 176.705200	 6.916593	 13.574440	-1.040312	-5.396099	 0.614275	-1.072018	 63.146690	-4.919456	-1.288183	 28.361890	 2.710176	-0.078062	 7.162509	-0.805772	 0.173652	-11.154900	-0.664350	 0.448936	 12.858200	 1.072554	-118.586000	-1.121976	 89.802060	 12.793000	-4.190137	-4.819306	 4.804346	-0.390487	 31.819220	 5.832658	 1.960085	 0.430016	-6.580301	 5.266122	 0.000000	 0.000000	 0.000000	 0.000000	 0.000000	 0.000000	 0.000000	 5.602659	 29.578880	 1.037168	-4.120955	-17.094870	 0.503785	 118.064900	-0.928142	-90.393040	-12.259900	-6.413107	 19.465110	-4.896327	 0.116677	-55.208560	-15.552560	-2.212334	 6.532861	 15.208500	 5.323790	 0.000000	 0.000000	 0.000000	 0.000000	 0.000000	 0.000000	 0.000000
 0.437288	 1.277096	 0.411060	 0.557010	-3.510807	-177.187100	-179.224900	 6.913034	-11.800050	 2.716379	-10.114850	 6.013787	 5.957174	 68.005180	-1.716942	 1.292262	 28.425850	-2.713146	 176.706200	 7.487385	 13.567900	-1.419451	-7.343801	 0.674906	-0.593675	 64.252640	-5.118870	-1.288183	 28.361890	 2.710176	-0.036643	 7.013868	-0.951192	 0.194530	-10.387430	-0.699889	 0.405371	 12.106860	 1.274288	-118.271600	-1.026889	 89.846370	 12.641630	-2.600528	-5.380809	 4.828934	-0.392530	 32.592670	 3.735205	 0.208635	-0.468190	-6.580301	 5.266122	 0.000000	 0.000000	 0.000000	 0.000000	 0.000000	 0.000000	 0.000000	 5.372025	 28.892460	 1.231375	-4.092753	-16.744880	 0.515760	 117.569000	-0.792570	-90.443690	-12.202660	-4.549276	 19.625830	-4.925199	 0.117374	-55.705960	-14.055840	-4.356743	 7.259713	 15.208500	 5.323790	 0.000000	 0.000000	 0.000000	 0.000000	 0.000000	 0.000000	 0.000000
